<?xml version="1.0" encoding="utf-8"?>
<!-- Generated by IcoMoon.io -->
<!DOCTYPE svg PUBLIC "-//W3C//DTD SVG 1.1//EN" "http://www.w3.org/Graphics/SVG/1.1/DTD/svg11.dtd">

<svg version="1.1" xmlns="http://www.w3.org/2000/svg" xmlns:xlink="http://www.w3.org/1999/xlink" width="32" height="128" viewBox="0 0 32 128">
<defs>
<g id="icon-google">
	<path class="path1" d="M24.673 2c0 0-6.28 0-8.373 0-3.754 0-7.287 2.844-7.287 6.138 0 3.366 2.559 6.083 6.378 6.083 0.266 0 0.524-0.005 0.776-0.024-0.248 0.475-0.425 1.009-0.425 1.564 0 0.936 0.503 1.694 1.14 2.313-0.481 0-0.945 0.014-1.452 0.014-4.649-0-8.228 2.961-8.228 6.032 0 3.024 3.923 4.916 8.573 4.916 5.301 0 8.228-3.008 8.228-6.032 0-2.425-0.715-3.877-2.928-5.442-0.757-0.536-2.204-1.839-2.204-2.604 0-0.897 0.256-1.34 1.607-2.395 1.385-1.082 2.365-2.603 2.365-4.372 0-2.106-0.938-4.159-2.699-4.837h2.655l1.874-1.354zM21.748 22.483c0.066 0.28 0.103 0.569 0.103 0.863 0 2.444-1.575 4.353-6.093 4.353-3.214 0-5.535-2.035-5.535-4.478 0-2.395 2.879-4.389 6.093-4.354 0.75 0.008 1.449 0.129 2.083 0.334 1.745 1.213 2.996 1.899 3.349 3.281zM16.603 13.368c-2.157-0.065-4.207-2.413-4.58-5.246-0.372-2.833 1.074-5.001 3.231-4.937 2.157 0.065 4.207 2.338 4.58 5.171 0.372 2.833-1.075 5.077-3.231 5.012z"></path>
</g>
<g id="icon-instagram">
	<path class="path1" d="M26.688 0h-21.375c-2.922 0-5.313 2.391-5.313 5.313v21.375c0 2.922 2.391 5.313 5.313 5.313h21.375c2.922 0 5.313-2.391 5.313-5.313v-21.375c0-2.922-2.391-5.313-5.313-5.313zM10.244 14h11.513c0.218 0.627 0.337 1.3 0.337 2 0 3.36-2.734 6.094-6.094 6.094-3.36 0-6.094-2.734-6.094-6.094 0-0.7 0.119-1.373 0.338-2zM28 14.002v11.998c0 1.1-0.9 2-2 2h-20c-1.1 0-2-0.9-2-2v-12h3.128c-0.145 0.644-0.222 1.313-0.222 2 0 5.014 4.079 9.094 9.094 9.094 5.014 0 9.094-4.079 9.094-9.094 0-0.687-0.077-1.356-0.222-2l3.128 0.002zM28 7c0 0.55-0.45 1-1 1h-2c-0.55 0-1-0.45-1-1v-2c0-0.55 0.45-1 1-1h2c0.55 0 1 0.45 1 1v2z"></path>
</g>
<g id="icon-twitter">
	<path class="path1" d="M26.667 0h-21.333c-2.934 0-5.334 2.4-5.334 5.334v21.332c0 2.936 2.4 5.334 5.334 5.334h21.333c2.934 0 5.333-2.398 5.333-5.334v-21.332c0-2.934-2.399-5.334-5.333-5.334zM26.189 10.682c0.010 0.229 0.015 0.46 0.015 0.692 0 7.069-5.288 15.221-14.958 15.221-2.969 0-5.732-0.886-8.059-2.404 0.411 0.050 0.83 0.075 1.254 0.075 2.463 0 4.73-0.855 6.529-2.29-2.3-0.043-4.242-1.59-4.911-3.715 0.321 0.063 0.65 0.096 0.989 0.096 0.479 0 0.944-0.066 1.385-0.188-2.405-0.492-4.217-2.654-4.217-5.245 0-0.023 0-0.045 0-0.067 0.709 0.401 1.519 0.641 2.381 0.669-1.411-0.959-2.339-2.597-2.339-4.453 0-0.98 0.259-1.899 0.712-2.689 2.593 3.237 6.467 5.366 10.836 5.589-0.090-0.392-0.136-0.8-0.136-1.219 0-2.954 2.354-5.349 5.257-5.349 1.512 0 2.879 0.65 3.838 1.689 1.198-0.24 2.323-0.685 3.338-1.298-0.393 1.249-1.226 2.298-2.311 2.96 1.063-0.129 2.077-0.417 3.019-0.842-0.705 1.073-1.596 2.015-2.623 2.769z"></path>
</g>
<g id="icon-linkedin">
	<path class="path1" d="M26.625 0h-21.25c-2.956 0-5.375 2.419-5.375 5.375v21.25c0 2.956 2.419 5.375 5.375 5.375h21.25c2.956 0 5.375-2.419 5.375-5.375v-21.25c0-2.956-2.419-5.375-5.375-5.375zM12 26h-4v-14h4v14zM10 10c-1.105 0-2-0.895-2-2s0.895-2 2-2 2 0.895 2 2-0.895 2-2 2zM26 26h-4v-8c0-1.105-0.895-2-2-2s-2 0.895-2 2v8h-4v-14h4v2.483c0.825-1.133 2.086-2.483 3.5-2.483 2.485 0 4.5 2.239 4.5 5v9z"></path>
</g>
</defs>

<g fill="#000000">
	<use xlink:href="#icon-google" transform="translate(0 0)"></use>
	<use xlink:href="#icon-instagram" transform="translate(0 32)"></use>
	<use xlink:href="#icon-twitter" transform="translate(0 64)"></use>
	<use xlink:href="#icon-linkedin" transform="translate(0 96)"></use>
</g>

</svg>
